<?xml version="1.0" encoding="utf-8"?>
<!-- Generator: Adobe Illustrator 19.0.1, SVG Export Plug-In . SVG Version: 6.00 Build 0)  -->
<svg version="1.1" id="Группа_3_1_" xmlns="http://www.w3.org/2000/svg" xmlns:xlink="http://www.w3.org/1999/xlink" x="0px"
	 y="0px" viewBox="0 0 1000 1000" style="enable-background:new 0 0 1000 1000;" xml:space="preserve">
<style type="text/css">
	.st0{fill:#4B4A58;}
</style>
<g id="Прямоугольник_4">
	<g>
		<path class="st0" d="M684.5,380.5v239h-369v-239H684.5 M690,375H310v250h380V375L690,375z"/>
	</g>
</g>
<g id="Прямоугольник_5">
	<g>
		<path class="st0" d="M539.5,625.5v29h-79v-29H539.5 M545,620h-90v40h90V620L545,620z"/>
	</g>
</g>
<g id="Прямоугольник_6">
	<g>
		<polygon class="st0" points="575,657 425,657 425,663 575,663 575,657 		"/>
	</g>
</g>
<g id="Прямоугольник_7">
	<g>
		<path class="st0" d="M684.5,580.5v39h-369v-39H684.5 M690,575H310v50h380V575L690,575z"/>
	</g>
</g>
<g id="Прямоугольник_8">
	<g>
		<path class="st0" d="M442.5,359.5v117h-61v-117H442.5 M448,354h-72v128h72V354L448,354z"/>
	</g>
</g>
<g id="Прямоугольник_9">
	<g>
		<polygon class="st0" points="605,459 485,459 485,464 605,464 605,459 		"/>
	</g>
</g>
<g id="Эллипс_4">
	<g>
		<path class="st0" d="M497,423.5c3.6,0,6.5,2.9,6.5,6.5s-2.9,6.5-6.5,6.5s-6.5-2.9-6.5-6.5S493.4,423.5,497,423.5 M497,418
			c-6.6,0-12,5.4-12,12s5.4,12,12,12s12-5.4,12-12S503.6,418,497,418L497,418z"/>
	</g>
</g>
<g id="Эллипс_4_kопировать_3">
	<g>
		<path class="st0" d="M497,593.5c3.6,0,6.5,2.9,6.5,6.5s-2.9,6.5-6.5,6.5s-6.5-2.9-6.5-6.5S493.4,593.5,497,593.5 M497,588
			c-6.6,0-12,5.4-12,12s5.4,12,12,12s12-5.4,12-12S503.6,588,497,588L497,588z"/>
	</g>
</g>
<g id="Эллипс_4_kопировать">
	<g>
		<path class="st0" d="M545,423.5c3.6,0,6.5,2.9,6.5,6.5s-2.9,6.5-6.5,6.5s-6.5-2.9-6.5-6.5S541.4,423.5,545,423.5 M545,418
			c-6.6,0-12,5.4-12,12s5.4,12,12,12s12-5.4,12-12S551.6,418,545,418L545,418z"/>
	</g>
</g>
<g id="Эллипс_4_kопировать_2">
	<g>
		<path class="st0" d="M593,423.5c3.6,0,6.5,2.9,6.5,6.5s-2.9,6.5-6.5,6.5c-3.6,0-6.5-2.9-6.5-6.5S589.4,423.5,593,423.5 M593,418
			c-6.6,0-12,5.4-12,12s5.4,12,12,12s12-5.4,12-12S599.6,418,593,418L593,418z"/>
	</g>
</g>
</svg>
